<?xml version="1.0" encoding="iso-8859-1"?>
<!-- Generator: Adobe Illustrator 19.0.0, SVG Export Plug-In . SVG Version: 6.00 Build 0)  -->
<svg version="1.1" id="Layer_1" xmlns="http://www.w3.org/2000/svg" xmlns:xlink="http://www.w3.org/1999/xlink" x="0px" y="0px"
	 viewBox="0 0 512 512" style="enable-background:new 0 0 512 512;" xml:space="preserve">
<path style="fill:#E6E6E6;" d="M271.436,249.351v247.214c0,8.523-6.913,15.436-15.436,15.436c-4.267,0-8.126-1.731-10.915-4.52
	c-2.789-2.8-4.52-6.659-4.52-10.915V249.351L271.436,249.351L271.436,249.351z"/>
<path style="fill:#CCCCCC;" d="M271.436,249.351v33.948c-5.05,0.617-10.21,0.937-15.436,0.937c-5.226,0-10.386-0.32-15.436-0.937
	v-33.948L271.436,249.351L271.436,249.351z"/>
<path style="fill:#F94848;" d="M380.129,105.801l-1.334,8.865l-10.044,66.627c-1.808,3.649-3.782,7.2-5.921,10.64
	c-22.161,35.69-61.721,59.45-106.826,59.45s-84.665-23.76-106.826-59.45c-2.139-3.44-4.113-6.99-5.921-10.64l-10.044-66.627
	l-1.334-8.865C141.416,45.833,193.357,0,256.004,0S370.592,45.833,380.129,105.801z"/>
<g>
	<path style="fill:#E23D3D;" d="M193.155,125.695c0-58.566,40.057-107.778,94.268-121.73c-10.043-2.584-20.572-3.96-31.423-3.96
		c-69.417,0-125.691,56.274-125.691,125.691s56.274,125.691,125.691,125.691c10.85,0,21.38-1.375,31.423-3.96
		c-16.037-4.128-30.834-11.34-43.722-20.967C213.019,203.541,193.155,166.937,193.155,125.695z"/>
	<path style="fill:#E23D3D;" d="M378.795,114.665l-10.044,66.627c-1.808,3.649-3.782,7.2-5.921,10.64
		c-32.889,13.683-68.976,21.235-106.826,21.235c-11.444,0-22.735-0.695-33.826-2.04c-25.568-3.087-50.067-9.647-73-19.195
		c-2.139-3.44-4.113-6.99-5.921-10.64l-10.044-66.627c21.445,12.415,44.951,21.676,69.858,27.134
		c17.045,3.738,34.763,5.711,52.933,5.711C300.734,147.51,342.675,135.559,378.795,114.665z"/>
	<path style="fill:#E23D3D;" d="M289.323,246.905c-10.607,2.922-21.786,4.476-33.319,4.476c-49.449,0-92.239-28.567-112.747-70.089
		h78.347C235.011,213.123,259.587,237.346,289.323,246.905z"/>
</g>
<path style="fill:#F94848;" d="M388.417,126.813c0,16.977-3.194,33.228-9.03,48.149c-0.426,1.087-1.254,1.974-2.304,2.482
	c-36.604,17.705-77.681,27.639-121.082,27.639c-11.444,0-22.735-0.695-33.826-2.04c-30.94-3.739-60.313-12.562-87.256-25.599
	c-1.051-0.508-1.88-1.395-2.305-2.483c-5.836-14.922-9.03-31.171-9.03-48.148c0-6.008,0.398-11.914,1.174-17.703
	c0.442-3.299,4.088-5.073,6.957-3.387c21.85,12.84,45.858,22.397,71.352,27.993c17.045,3.738,34.763,5.711,52.933,5.711
	c45.353,0,87.827-12.28,124.285-33.704c2.869-1.686,6.514,0.089,6.956,3.387C388.019,114.899,388.417,120.805,388.417,126.813z"/>
<path style="fill:#E23D3D;" d="M222.174,203.043c-30.94-3.739-60.313-12.562-87.256-25.599c-1.051-0.508-1.88-1.395-2.305-2.483
	c-5.836-14.922-9.03-31.171-9.03-48.148c0-6.008,0.398-11.914,1.174-17.703c0.442-3.299,4.088-5.073,6.957-3.387
	c21.85,12.84,45.858,22.397,71.352,27.993C193.343,154.311,193.343,182.205,222.174,203.043z"/>
<g>
	<circle style="fill:#FC8181;" cx="317.105" cy="70.795" r="21.224"/>
	<circle style="fill:#FC8181;" cx="359.278" cy="146.044" r="10.612"/>
</g>

</svg>
